<?xml version="1.0" encoding="iso-8859-1"?>
<!-- Generator: Adobe Illustrator 16.0.0, SVG Export Plug-In . SVG Version: 6.00 Build 0)  -->
<!DOCTYPE svg PUBLIC "-//W3C//DTD SVG 1.1//EN" "http://www.w3.org/Graphics/SVG/1.1/DTD/svg11.dtd">
<svg version="1.1" id="Capa_1" xmlns="http://www.w3.org/2000/svg" xmlns:xlink="http://www.w3.org/1999/xlink" x="0px" y="0px"
	 width="700.479px" height="700.479px" viewBox="0 0 700.479 700.479" style="enable-background:new 0 0 700.479 700.479;"
	 xml:space="preserve">
<g>
	<g>
		<g>
			<path fill="rgba(0,0,0,0.5)" d="M328.394,54.674c0,6.042-4.898,10.94-10.94,10.94c-6.019,0-10.939-4.898-10.939-10.94V43.781
				c0-5.836,1.19-11.535,3.364-16.73l0.16-0.366c2.243-5.264,5.447-9.979,9.292-13.823l0.709-0.664
				c3.868-3.685,8.422-6.729,13.457-8.834C338.692,1.213,344.345,0,350.228,0c5.835,0,11.535,1.213,16.707,3.364
				c5.4,2.243,10.229,5.516,14.213,9.475l0.755,0.824c3.662,3.868,6.637,8.422,8.72,13.412c2.151,5.195,3.342,10.871,3.342,16.707
				h-0.046l-0.022,10.894c0,5.996-4.875,10.894-10.871,10.894c-6.02,0-10.895-4.875-10.895-10.894l0.022-10.894h-0.045
				c0-2.976-0.572-5.836-1.604-8.354c-1.028-2.472-2.493-4.738-4.303-6.683l-0.479-0.458c-2.061-2.06-4.485-3.708-7.117-4.829
				c-2.495-1.03-5.333-1.625-8.331-1.625c-3.021,0-5.859,0.595-8.354,1.625c-2.472,1.03-4.714,2.495-6.614,4.303l-0.481,0.526
				c-1.922,1.922-3.501,4.188-4.577,6.568l-0.206,0.526c-1.053,2.518-1.625,5.378-1.625,8.376v10.917H328.394z"/>
			<path fill="rgba(0,0,0,0.5)" d="M425.386,302.532c-5.173,3.043-11.854,1.304-14.898-3.868s-1.305-11.855,3.867-14.899l76.623-44.925
				c5.173-3.021,11.854-1.305,14.898,3.868c2.061,3.524,1.922,7.735,0,11.031l-0.113,0.183l-44.812,76.463
				c-3.044,5.172-9.727,6.912-14.898,3.868c-5.173-3.044-6.911-9.727-3.867-14.899l23.823-40.646L425.386,302.532z"/>
			<path fill="rgba(0,0,0,0.5)" d="M275.092,486.423c5.172-3.044,11.855-1.305,14.899,3.867c3.044,5.173,1.305,11.855-3.868,14.899l-76.646,44.901
				c-5.172,3.044-11.855,1.305-14.899-3.867c-2.06-3.523-1.922-7.734,0-11.03l0.092-0.185l44.811-76.463
				c3.044-5.172,9.727-6.911,14.899-3.867s6.912,9.728,3.868,14.898l-23.824,40.646L275.092,486.423z"/>
			<path fill="rgba(0,0,0,0.5)" d="M350.229,309.764c23.389,0,44.583,9.498,59.893,24.809c15.311,15.311,24.81,36.503,24.81,59.893
				c0,23.391-9.498,44.582-24.81,59.895c-15.311,15.311-36.504,24.809-59.893,24.809c-23.39,0-44.583-9.498-59.894-24.809
				c-15.311-15.312-24.809-36.504-24.809-59.895c0-23.39,9.498-44.582,24.809-59.893S326.861,309.764,350.229,309.764
				L350.229,309.764z M394.673,350.044c-11.352-11.352-27.073-18.401-44.422-18.401c-17.348,0-33.071,7.049-44.422,18.401
				c-11.351,11.353-18.4,27.074-18.4,44.422c0,17.349,7.049,33.07,18.4,44.422c11.351,11.353,27.074,18.401,44.422,18.401
				c17.349,0,33.07-7.05,44.422-18.401c11.353-11.351,18.4-27.073,18.4-44.422C413.073,377.118,406.024,361.396,394.673,350.044z"/>
			<path fill="rgba(0,0,0,0.5)" d="M350.229,346.657c13.182,0,25.174,5.378,33.826,14.006c8.628,8.628,14.006,20.598,14.006,33.803
				s-5.378,25.175-14.006,33.826c-8.628,8.628-20.62,14.006-33.826,14.006s-25.175-5.378-33.803-14.006
				s-14.006-20.621-14.006-33.826s5.378-25.175,14.006-33.803C325.075,352.035,337.045,346.657,350.229,346.657L350.229,346.657z
				 M368.583,376.134c-4.691-4.69-11.19-7.598-18.355-7.598c-7.141,0-13.663,2.929-18.332,7.598
				c-4.692,4.692-7.598,11.191-7.598,18.332c0,7.163,2.929,13.663,7.598,18.354c4.692,4.691,11.191,7.599,18.332,7.599
				c7.165,0,13.664-2.93,18.355-7.599c4.691-4.691,7.599-11.191,7.599-18.354C376.204,387.325,373.274,380.803,368.583,376.134z"/>
			<path fill="rgba(0,0,0,0.5)" d="M66.118,394.466c0,78.454,31.812,149.493,83.214,200.918l0.504,0.55c51.311,51.082,122.167,82.664,200.392,82.664
				c78.477,0,149.54-31.812,200.941-83.19c51.379-51.402,83.191-122.464,83.191-200.94c0-78.476-31.813-149.539-83.191-200.941
				c-51.401-51.379-122.465-83.191-200.941-83.191c-78.5,0-149.538,31.812-200.895,83.168l-0.045,0.069
				C97.907,244.927,66.118,315.989,66.118,394.466L66.118,394.466z M133.862,610.855C78.5,555.471,44.239,478.962,44.239,394.466
				c0-84.45,34.261-160.913,89.623-216.297l0.023-0.023l0.022-0.023l0.023-0.023c55.385-55.362,131.871-89.622,216.321-89.622
				c84.474,0,160.958,34.283,216.32,89.622l0.046,0.046c55.339,55.361,89.622,131.87,89.622,216.32
				c0,84.474-34.283,160.981-89.622,216.344l-0.046,0.047c-55.362,55.338-131.87,89.622-216.32,89.622
				c-84.13,0-160.364-34.01-215.703-89.006L133.862,610.855z"/>
			<path fill="rgba(0,0,0,0.5)" d="M401.493,646.123c-5.882,1.167-11.626-2.655-12.816-8.537c-1.189-5.882,2.654-11.626,8.536-12.793
				c54.08-10.963,101.479-40.555,135.12-81.75c33.025-40.438,52.846-92.186,52.846-148.555c0-64.905-26.273-123.654-68.773-166.13
				l-0.046-0.046c-42.453-42.522-101.227-68.796-166.13-68.796c-64.905,0-123.654,26.273-166.131,68.773l-0.045,0.046
				c-42.5,42.477-68.773,101.226-68.773,166.131c0,64.905,26.273,123.654,68.773,166.131l0.045,0.047
				c42.477,42.5,101.226,68.772,166.131,68.772c6.019,0,10.939,4.897,10.939,10.939c0,6.019-4.896,10.938-10.939,10.938
				c-70.856,0-135.029-28.745-181.534-75.204l-0.023-0.021v-0.023l-0.023-0.021c-46.481-46.505-75.227-110.701-75.227-181.558
				c0-70.855,28.745-135.028,75.204-181.533l0.022-0.023l0.023-0.023l0.023-0.023c46.505-46.482,110.678-75.227,181.534-75.227
				c70.855,0,135.029,28.745,181.533,75.204l0.023,0.023l0.022,0.023l0.022,0.023c46.481,46.505,75.228,110.678,75.228,181.534
				c0,61.518-21.673,118.022-57.812,162.286C512.468,601.792,460.653,634.13,401.493,646.123z"/>
			<path fill="rgba(0,0,0,0.5)" d="M141.231,383.526c6.019,0,10.939,4.896,10.939,10.938s-4.897,10.939-10.939,10.939h-30.714
				c-6.019,0-10.939-4.897-10.939-10.939c0-6.019,4.897-10.938,10.939-10.938H141.231z"/>
			<path fill="rgba(0,0,0,0.5)" d="M589.983,383.526c6.02,0,10.938,4.896,10.938,10.938s-4.896,10.939-10.938,10.939h-30.736
				c-6.019,0-10.938-4.897-10.938-10.939c0-6.019,4.897-10.938,10.938-10.938H589.983z"/>
			<path fill="rgba(0,0,0,0.5)" d="M339.311,603.463c0-6.042,4.898-10.938,10.94-10.938c6.02,0,10.939,4.896,10.939,10.938v36.894
				c0,6.019-4.897,10.938-10.939,10.938c-6.02,0-10.94-4.896-10.94-10.938V603.463z"/>
			<path fill="rgba(0,0,0,0.5)" d="M339.311,154.733c0-6.019,4.898-10.939,10.94-10.939c6.02,0,10.939,4.897,10.939,10.939v30.736
				c0,6.042-4.897,10.939-10.939,10.939c-6.02,0-10.94-4.897-10.94-10.939V154.733z"/>
			<path fill="rgba(0,0,0,0.5)" d="M488.14,550.824c-4.233-4.257-4.211-11.168,0.046-15.425c4.257-4.234,11.169-4.211,15.401,0.046l26.067,26.09
				c4.234,4.257,4.212,11.169-0.045,15.426c-4.257,4.233-11.169,4.211-15.426-0.046L488.14,550.824z"/>
			<path fill="rgba(0,0,0,0.5)" d="M170.8,233.576c-4.257-4.257-4.257-11.214,0-15.471c4.257-4.257,11.214-4.257,15.471,0l21.742,21.742
				c4.256,4.257,4.256,11.214,0,15.448c-4.257,4.257-11.214,4.257-15.448,0L170.8,233.576z"/>
		</g>
	</g>
</g>
<g>
</g>
<g>
</g>
<g>
</g>
<g>
</g>
<g>
</g>
<g>
</g>
<g>
</g>
<g>
</g>
<g>
</g>
<g>
</g>
<g>
</g>
<g>
</g>
<g>
</g>
<g>
</g>
<g>
</g>
</svg>
